<?xml version="1.0" encoding="UTF-8"?><svg xmlns="http://www.w3.org/2000/svg" viewBox="0 0 1093.1 1248.03"><defs><style>.c{fill:#9a0000;}</style></defs><g id="a"/><g id="b"><g><path class="c" d="M737.6,366.11c-20.51,.74-77.18,12.12-95.94,39.97-16.66,25.66,112.38,27.01,151.09-5.15,36.46-30.3,51.95-55.46,67.56-87.99,1.51-3.1-.31-6.79-3.7-7.45-23.42-4.54-108.08-18.22-235.15-7.62-150.68,12.55-220.31,43.81-235.95,48.8-53.33,17.01-88.29,49.15-118.94,88.2-14.06,17.91-30.26,28.96-36.21,34.9-3.19,3.18-10.07,10.93-19.57,16.63-19.57,11.76-45.92,29.52-98.15,103.43-.17,.25-.27,.53-.38,.79-16.98,41.77,55.82,101.14,73.43,110.99,5.96,3.31,19.56,4.17,28.64,3.47,17.07,15.04,30.7,23.54,39.22,28.04,2.99,1.58,6.23-1.68,4.66-4.69-6.1-11.53-15.06-30.56-10.75-35.57,37.81,26.07,61.73,33.09,74.83,34.58,5.35,.6,8.79-5.53,5.59-9.85-11.39-15.36-32.51-45.64-32.33-59.44,19.69-13.58,39.64-24.4,58.82-22.98,45.13,3.36,97.16,55.92,92.13,101.14-3.55,32.06-19.64,46.74-39.64,57.94-9.61-3.21-34.26-20-47.59-30.31-3.56-2.74-7.46,.91-5.76,5.42,3.71,9.87,11.78,21.71,25.52,38.86,.35,.42,.67,.82,1.02,1.25-.68-.2-1.39-.41-2.13-.65-8.23-2.72-18.64-8.35-25.79-12.51-3.81-2.21-9.87,.25-9.35,3.82,.82,5.74,4,14.48,13.2,26.96-7.96,10.33-10.93,21.38-10.35,29.98,.95,14.73,28.73,74.69,92.48,116.53,3.13,2.04,7.31,.29,8.07-3.36,4.29-21.15,20.62-80.73,71.4-105.96,60.96-30.3,106.65-35.68,155.04-20.17,1.94,.62,4.05,.11,5.44-1.38,13.84-14.71,85.49-95.25,97.21-197.12,9.56-83.35-13.14-139.56-33.16-169.85-3.36-5.05-11.16-1.38-9.44,4.41,12.79,42.9,29.64,128.2-13.49,189.04-59.83,84.42-81.31,91.75-133.4,112.67-51,20.47-113.85,41.2-160.79,118.36-1.67,2.74-12.35,6.93-23.27,1.66-15.53-7.5-24.08-21.8-25.37-46.09-1.1-20.72,26.68-38.63,32.43-41.36,34.03-16.13,73.69-18.77,70.06-74.71-2.63-40.19-75.37-120.47-76.51-121.82-6.49-7.58-42.25-24.3-94.31,18.75-12.69,10.48-24.41,18.66-35.21,24.95-.07,0-.11,.05-.18,.08-5.91,3.43-11.54,6.29-16.88,8.62-36.41,15.98-59.69,8.27-69.88-2.84-14.46-15.73-21.98-45.81,.66-74.53,4.2-5.31-5.83-13.47-11.13-16.59-.6-.34-7,1.28-18.96,9.4-13.55,9.23-24.56,15.42-24.56,15.42-2.37,.45-6.51,1.69-1.91-7.43,5.09-10.1,39.17-55.49,57.43-70.09,9.68-7.72,29.17-21.33,30.13-21.87,9.02-5.12,20.04-12.27,36.55-25.83,44.31-36.39,73.67-102.51,188.36-120.86,80-12.81,114.51-13.9,126.82-13.97,3.56-.03,6.09,3.44,5.01,6.82-2.23,7-6.97,18.48-16.07,28.26-3.01,3.23-.96,8.58,3.45,8.84,13.29,.76,32.62-10.79,72.14-37.42,39.53-26.63,154.1-15.98,161.44-4.55,7.34,11.43-48.93,40.65-48.93,40.65-5.16,1.76-9.58-4.81-5.57-8.51,4.27-3.94,4.71-9.48-3.11-9.09Z"/><path class="c" d="M281.86,535.73s-1.78-.61-1.23-2.36l3.64-9.62c.5-1.31,1.93-2.01,3.27-1.59l3.37,1.22c1.86,.72,3.63,1.59,5.41,2.46,3.51,1.83,6.91,3.9,10.1,6.29,6.41,4.72,12.07,10.58,16.6,17.25,2.2,3.36,4.13,6.89,5.73,10.56,.01,.03,.03,.06,.04,.09,.7,1.87,1.46,3.71,1.99,5.63,.28,.96,.61,1.9,.84,2.88l.62,2.93c1.13,5.75,1.33,11.61,.61,17.28-.11,.87-1.35,.93-1.56,.08l-1.28-5.17c-.84-3.62-2.11-7.11-3.52-10.46-1.45-3.34-3.24-6.5-5.17-9.49-1.99-2.97-4.21-5.74-6.61-8.31-4.89-5.08-10.52-9.29-16.51-12.72-3-1.71-6.09-3.23-9.24-4.53l-7.11-2.42Z"/><path class="c" d="M600.39,457.72c1.05-.62,1.82,.05,.9,1.04l-3.75,4.4c-1.23,1.51-2.32,3.16-3.47,4.74-2.25,3.21-4.46,6.47-6.6,9.77-4.34,6.56-8.62,13.17-12.82,19.84-8.41,13.32-15.65,25.11-23.76,38.61l-1.33,2.21-2.8,.37c-17.59,2.25-32.91,5.84-50.22,10.09-8.66,2.12-17.29,4.4-25.89,6.76-8.62,2.31-24.87,6.88-25.79,7.15s-1.02-1-.41-1.31c.37-.19,15.92-9.27,24.12-13.28,8.25-3.87,16.64-7.31,25.2-10.31l3.2-1.15,3.24-1.05,6.49-2.08c4.37-1.23,8.74-2.57,13.19-3.61,4.44-1.1,8.93-2.13,13.49-2.94,2.3-.4,3.79-.71,6.12-1.08l1.87-.2,3.27-4.97c2.15-3.33,4.42-6.58,6.7-9.83,4.55-6.5,9.34-12.85,14.33-19.08,5.01-6.21,10.25-12.28,15.9-18.09,1.43-1.44,2.84-2.88,4.31-4.3,1.45-1.43,2.87-2.85,4.48-4.18,1.59-1.34,3.04-2.73,4.74-3.99l5.28-3.5Z"/><path class="c" d="M1070.2,295.22L569.47,6.14c-14.18-8.19-31.64-8.19-45.81,0L22.91,295.22c-14.18,8.19-22.91,23.3-22.91,39.69V913.09c0,16.39,8.73,31.51,22.91,39.69l500.74,289.11c14.17,8.19,31.63,8.19,45.81,0l500.73-289.11c14.17-8.19,22.9-23.3,22.9-39.69V334.91c0-16.39-8.73-31.51-22.9-39.69Zm-59.55,328.79c0,1.47,0,2.95-.05,4.42-.37,43.22-6.67,84.98-18.12,124.6,.02-.25,.05-.51,.08-.76,.05-.45,.09-.88,.11-1.33,.56-7.17,.79-14.46,.79-21.8,0-123.46-34.33-278-127.3-327.3-4.01-2.13-6.35,4.21-3.18,7.39,80.58,80.95,89.2,261.64,81.34,351.5-3.96,45.27-29.98,134.42-65.24,185.49-1.07,1.58-2.16,3.11-3.24,4.65-46.11,46.46-102.01,83.22-164.32,106.94-.28,.15-.57,.31-.85,.46l.51-.32,36.53-23.75c56.95-43.76,107.85-126.6,125.2-204.34,42.34-189.7-25.63-355.67-63.3-386.12-3.69-2.97-8.87,1-6.97,5.32,39.85,90.08,50.15,247.04-1.94,390.51-43.59,104.54-140.5,193.99-232.56,229.31-22.5,8.64-44.73,14.01-65.78,15.61-220.35-20.81-395.86-195.69-417.63-415.78-.14-1.3-.25-2.6-.36-3.91-1.25-13.67-1.89-27.52-1.92-41.52v-.83c0-1.73,0-3.46,.05-5.18,2.77-253.93,209.49-458.92,464.05-458.92s458.52,202.23,463.97,453.82c.09,3.41,.14,6.84,.14,10.28v1.58Z"/><path class="c" d="M356.77,480.33c.62,.34-6.52,8.36-8.52,12.27-.78,1.53-.4,3.72,2.45,1.86,7.75-5.08,35.11-24.12,48.23-33.99,18.52-16.22,21.83-34.55,21.83-34.56h0c.74-5.49,.79-11.17-7.6-8.79l-90.91,24.5c-.84,.23-.88,2.22-.09,2.57,2.93,1.29,11.32,3.45,15.82,3.21,0,0-2.91,20.93,18.81,32.93Z"/></g></g></svg>