<?xml version="1.0" encoding="UTF-8" standalone="no"?>
<!DOCTYPE svg PUBLIC "-//W3C//DTD SVG 1.1//EN" "http://www.w3.org/Graphics/SVG/1.1/DTD/svg11.dtd">
<svg width="100%" height="100%" viewBox="0 0 1094 1249" version="1.1" xmlns="http://www.w3.org/2000/svg" xmlns:xlink="http://www.w3.org/1999/xlink" xml:space="preserve" xmlns:serif="http://www.serif.com/" style="fill-rule:evenodd;clip-rule:evenodd;stroke-linejoin:round;stroke-miterlimit:2;">
    <g transform="matrix(1,0,0,1,0,0.0025)">
        <g>
            <path d="M737.6,366.11C717.09,366.85 660.42,378.23 641.66,406.08C625,431.74 754.04,433.09 792.75,400.93C829.21,370.63 844.7,345.47 860.31,312.94C861.82,309.84 860,306.15 856.61,305.49C833.19,300.95 748.53,287.27 621.46,297.87C470.78,310.42 401.15,341.68 385.51,346.67C332.18,363.68 297.22,395.82 266.57,434.87C252.51,452.78 236.31,463.83 230.36,469.77C227.17,472.95 220.29,480.7 210.79,486.4C191.22,498.16 164.87,515.92 112.64,589.83C112.47,590.08 112.37,590.36 112.26,590.62C95.28,632.39 168.08,691.76 185.69,701.61C191.65,704.92 205.25,705.78 214.33,705.08C231.4,720.12 245.03,728.62 253.55,733.12C256.54,734.7 259.78,731.44 258.21,728.43C252.11,716.9 243.15,697.87 247.46,692.86C285.27,718.93 309.19,725.95 322.29,727.44C327.64,728.04 331.08,721.91 327.88,717.59C316.49,702.23 295.37,671.95 295.55,658.15C315.24,644.57 335.19,633.75 354.37,635.17C399.5,638.53 451.53,691.09 446.5,736.31C442.95,768.37 426.86,783.05 406.86,794.25C397.25,791.04 372.6,774.25 359.27,763.94C355.71,761.2 351.81,764.85 353.51,769.36C357.22,779.23 365.29,791.07 379.03,808.22C379.38,808.64 379.7,809.04 380.05,809.47C379.37,809.27 378.66,809.06 377.92,808.82C369.69,806.1 359.28,800.47 352.13,796.31C348.32,794.1 342.26,796.56 342.78,800.13C343.6,805.87 346.78,814.61 355.98,827.09C348.02,837.42 345.05,848.47 345.63,857.07C346.58,871.8 374.36,931.76 438.11,973.6C441.24,975.64 445.42,973.89 446.18,970.24C450.47,949.09 466.8,889.51 517.58,864.28C578.54,833.98 624.23,828.6 672.62,844.11C674.56,844.73 676.67,844.22 678.06,842.73C691.9,828.02 763.55,747.48 775.27,645.61C784.83,562.26 762.13,506.05 742.11,475.76C738.75,470.71 730.95,474.38 732.67,480.17C745.46,523.07 762.31,608.37 719.18,669.21C659.35,753.63 637.87,760.96 585.78,781.88C534.78,802.35 471.93,823.08 424.99,900.24C423.32,902.98 412.64,907.17 401.72,901.9C386.19,894.4 377.64,880.1 376.35,855.81C375.25,835.09 403.03,817.18 408.78,814.45C442.81,798.32 482.47,795.68 478.84,739.74C476.21,699.55 403.47,619.27 402.33,617.92C395.84,610.34 360.08,593.62 308.02,636.67C295.33,647.15 283.61,655.33 272.81,661.62C272.74,661.62 272.7,661.67 272.63,661.7C266.72,665.13 261.09,667.99 255.75,670.32C219.34,686.3 196.06,678.59 185.87,667.48C171.41,651.75 163.89,621.67 186.53,592.95C190.73,587.64 180.7,579.48 175.4,576.36C174.8,576.02 168.4,577.64 156.44,585.76C142.89,594.99 131.88,601.18 131.88,601.18C129.51,601.63 125.37,602.87 129.97,593.75C135.06,583.65 169.14,538.26 187.4,523.66C197.08,515.94 216.57,502.33 217.53,501.79C226.55,496.67 237.57,489.52 254.08,475.96C298.39,439.57 327.75,373.45 442.44,355.1C522.44,342.29 556.95,341.2 569.26,341.13C572.82,341.1 575.35,344.57 574.27,347.95C572.04,354.95 567.3,366.43 558.2,376.21C555.19,379.44 557.24,384.79 561.65,385.05C574.94,385.81 594.27,374.26 633.79,347.63C673.32,321 787.89,331.65 795.23,343.08C802.57,354.51 746.3,383.73 746.3,383.73C741.14,385.49 736.72,378.92 740.73,375.22C745,371.28 745.44,365.74 737.62,366.13L737.6,366.11Z" style="fill:white;fill-rule:nonzero;"/>
            <path d="M281.86,535.73C281.86,535.73 280.08,535.12 280.63,533.37L284.27,523.75C284.77,522.44 286.2,521.74 287.54,522.16L290.91,523.38C292.77,524.1 294.54,524.97 296.32,525.84C299.83,527.67 303.23,529.74 306.42,532.13C312.83,536.85 318.49,542.71 323.02,549.38C325.22,552.74 327.15,556.27 328.75,559.94C328.76,559.97 328.78,560 328.79,560.03C329.49,561.9 330.25,563.74 330.78,565.66C331.06,566.62 331.39,567.56 331.62,568.54L332.24,571.47C333.37,577.22 333.57,583.08 332.85,588.75C332.74,589.62 331.5,589.68 331.29,588.83L330.01,583.66C329.17,580.04 327.9,576.55 326.49,573.2C325.04,569.86 323.25,566.7 321.32,563.71C319.33,560.74 317.11,557.97 314.71,555.4C309.82,550.32 304.19,546.11 298.2,542.68C295.2,540.97 292.11,539.45 288.96,538.15L281.85,535.73L281.86,535.73Z" style="fill:white;fill-rule:nonzero;"/>
            <path d="M600.39,457.72C601.44,457.1 602.21,457.77 601.29,458.76L597.54,463.16C596.31,464.67 595.22,466.32 594.07,467.9C591.82,471.11 589.61,474.37 587.47,477.67C583.13,484.23 578.85,490.84 574.65,497.51C566.24,510.83 559,522.62 550.89,536.12L549.56,538.33L546.76,538.7C529.17,540.95 513.85,544.54 496.54,548.79C487.88,550.91 479.25,553.19 470.65,555.55C462.03,557.86 445.78,562.43 444.86,562.7C443.94,562.97 443.84,561.7 444.45,561.39C444.82,561.2 460.37,552.12 468.57,548.11C476.82,544.24 485.21,540.8 493.77,537.8L496.97,536.65L500.21,535.6L506.7,533.52C511.07,532.29 515.44,530.95 519.89,529.91C524.33,528.81 528.82,527.78 533.38,526.97C535.68,526.57 537.17,526.26 539.5,525.89L541.37,525.69L544.64,520.72C546.79,517.39 549.06,514.14 551.34,510.89C555.89,504.39 560.68,498.04 565.67,491.81C570.68,485.6 575.92,479.53 581.57,473.72C583,472.28 584.41,470.84 585.88,469.42C587.33,467.99 588.75,466.57 590.36,465.24C591.95,463.9 593.4,462.51 595.1,461.25L600.38,457.75L600.39,457.72Z" style="fill:white;fill-rule:nonzero;"/>
            <path d="M1070.2,295.22L569.47,6.14C555.29,-2.05 537.83,-2.05 523.66,6.14L22.91,295.22C8.73,303.41 0,318.52 0,334.91L0,913.09C0,929.48 8.73,944.6 22.91,952.78L523.65,1241.89C537.82,1250.08 555.28,1250.08 569.46,1241.89L1070.19,952.78C1084.36,944.59 1093.09,929.48 1093.09,913.09L1093.09,334.91C1093.09,318.52 1084.36,303.4 1070.19,295.22L1070.2,295.22ZM1010.65,624.01C1010.65,625.48 1010.65,626.96 1010.6,628.43C1010.23,671.65 1003.93,713.41 992.48,753.03C992.5,752.78 992.53,752.52 992.56,752.27C992.61,751.82 992.65,751.39 992.67,750.94C993.23,743.77 993.46,736.48 993.46,729.14C993.46,605.68 959.13,451.14 866.16,401.84C862.15,399.71 859.81,406.05 862.98,409.23C943.56,490.18 952.18,670.87 944.32,760.73C940.36,806 914.34,895.15 879.08,946.22C878.01,947.8 876.92,949.33 875.84,950.87C829.73,997.33 773.83,1034.09 711.52,1057.81C711.24,1057.96 710.95,1058.12 710.67,1058.27L711.18,1057.95L747.71,1034.2C804.66,990.44 855.56,907.6 872.91,829.86C915.25,640.16 847.28,474.19 809.61,443.74C805.92,440.77 800.74,444.74 802.64,449.06C842.49,539.14 852.79,696.1 800.7,839.57C757.11,944.11 660.2,1033.56 568.14,1068.88C545.64,1077.52 523.41,1082.89 502.36,1084.49C282.01,1063.68 106.5,888.8 84.73,668.71C84.59,667.41 84.48,666.11 84.37,664.8C83.12,651.13 82.48,637.28 82.45,623.28L82.45,622.45C82.45,620.72 82.45,618.99 82.5,617.27C85.27,363.34 291.99,158.35 546.55,158.35C801.11,158.35 1005.07,360.58 1010.52,612.17C1010.61,615.58 1010.66,619.01 1010.66,622.45L1010.66,624.03L1010.65,624.01Z" style="fill:white;fill-rule:nonzero;"/>
            <path d="M356.77,480.33C357.39,480.67 350.25,488.69 348.25,492.6C347.47,494.13 347.85,496.32 350.7,494.46C358.45,489.38 385.81,470.34 398.93,460.47C417.45,444.25 420.76,425.92 420.76,425.91C421.5,420.42 421.55,414.74 413.16,417.12L322.25,441.62C321.41,441.85 321.37,443.84 322.16,444.19C325.09,445.48 333.48,447.64 337.98,447.4C337.98,447.4 335.07,468.33 356.79,480.33L356.77,480.33Z" style="fill:white;fill-rule:nonzero;"/>
        </g>
    </g>
</svg>
